<svg width="499" height="319" viewBox="0 0 499 319" fill="none" xmlns="http://www.w3.org/2000/svg">
<g clip-path="url(#clip0_6524_35566)">
<path d="M1.90742 318.118C9.36508 322.902 17.6095 323.098 25.7713 323.528C41.2942 324.351 56.5409 322.057 71.593 318.747C80.896 316.7 90.0022 313.727 99.1354 310.986C111.984 307.136 124.582 302.548 136.684 296.803C148.722 291.089 160.339 284.612 170.583 275.959C181.454 266.785 189.66 255.695 194.418 242.375C196.029 237.871 196.193 232.833 196.816 228.015C197.052 226.162 195.643 226.903 194.801 227.248C191.13 228.763 187.456 230.274 183.83 231.895C179.677 233.746 175.604 235.785 171.441 237.616C164.032 240.878 156.61 244.11 149.143 247.236C140.015 251.082 130.35 253.528 120.479 254.49C112.1 255.311 103.895 254.105 96.3666 250.34C90.5169 247.42 86.1241 242.953 84.5662 236.332C83.9679 233.797 83.1719 231.258 82.9795 228.68C82.4343 221.586 86.1588 215.998 90.3959 210.922C95.8812 204.349 103.287 200.306 111.177 197.179C127.921 190.513 145.303 190.181 162.933 192.186C168.834 192.853 174.595 193.818 180.211 195.847C188.028 198.672 194.231 203.218 197.987 210.73C198.493 211.739 199.165 212.667 199.677 213.677C201.137 216.575 201.128 216.605 204.11 215.266C210.452 212.408 216.841 209.633 223.099 206.602C226.113 205.142 228.863 203.148 231.766 201.442C233.152 200.627 234.603 199.924 236.031 199.173C242.401 195.823 248.806 192.521 255.131 189.092C256.549 188.328 257.697 187.084 259.081 186.247C261.814 184.605 264.67 183.17 267.386 181.52C271.996 178.718 276.597 175.879 281.085 172.912C283.114 171.567 284.8 169.72 286.808 168.337C289.985 166.141 293.396 164.31 296.487 162.024C300.082 159.395 303.423 156.417 306.927 153.658C313.292 148.654 319.756 143.773 326.067 138.703C330.856 134.858 335.534 130.873 340.148 126.819C345.286 122.305 350.282 117.622 355.373 113.053C357.035 111.563 358.941 110.325 360.512 108.754C363.293 105.972 365.881 103.006 368.589 100.157C370.954 97.6569 373.422 95.2265 375.81 92.7345C381.757 86.5253 387.683 80.3132 393.587 74.0982C394.6 73.0378 395.438 71.7835 396.573 70.8881C397.361 70.2389 399.086 69.4761 399.434 69.7976C400.646 70.9047 401.913 72.3427 402.289 73.8681C402.874 76.2549 401.435 77.9373 399.227 79.1147C398.147 79.689 397.386 80.857 396.506 81.7755C391.796 86.6933 387.064 91.5908 382.39 96.5451C377.427 101.799 372.673 107.256 367.534 112.334C364.001 115.795 359.953 118.748 356.191 121.996C350.16 127.2 344.231 132.52 338.162 137.672C333.178 141.904 328.038 145.949 322.997 150.112C322.007 150.927 321.237 152.004 320.246 152.77C314.711 157.063 309.231 161.427 303.556 165.526C295.877 171.076 288.105 176.495 280.238 181.784C276.23 184.466 271.956 186.764 267.726 189.109C260.214 193.284 252.626 197.323 245.105 201.483C238.092 205.363 231.138 209.36 224.119 213.239C217.915 216.68 211.682 220.076 205.421 223.427C204.164 224.097 203.397 224.778 203.502 226.333C204.257 237.616 200.793 247.83 195.18 257.416C189.885 266.458 183.6 274.817 175.423 281.479C170.777 285.203 165.84 288.556 160.659 291.505C153.406 295.704 145.861 299.409 138.482 303.397C137.517 303.915 136.918 305.149 135.941 305.567C130.939 307.702 125.932 309.858 120.81 311.677C111.175 315.097 101.467 318.323 91.7609 321.591C81.6746 324.985 71.2924 327.108 60.8161 328.965C51.0757 330.707 41.2161 331.714 31.3221 331.978C22.7311 332.2 14.3077 330.753 6.03052 328.489C2.42407 327.513 -0.425664 323.809 0.0525297 320.768C0.211384 319.88 1.18004 319.126 1.90742 318.118ZM97.8236 212.432C96.4484 214.117 93.5805 217.082 91.2996 220.447C89.2448 223.476 88.1436 227.125 89.1527 230.776C91.1184 237.889 95.7778 242.601 102.935 244.892C111.517 247.639 120.186 247.264 128.709 245.131C136.358 243.22 143.871 240.708 151.339 238.156C157.457 236.062 163.411 233.513 169.44 231.179C172.337 230.059 175.31 229.108 178.13 227.83C183.347 225.479 188.451 222.894 193.658 220.518C195.193 219.808 195.475 218.994 194.813 217.539C191.916 211.204 187.193 206.682 180.823 203.893C175.012 201.339 168.901 200.076 162.575 199.362C154.556 198.444 146.568 197.915 138.517 198.781C130.848 199.61 123.295 200.618 115.863 202.975C109.85 204.882 104.459 207.603 97.8236 212.432Z" fill="white"/>
<path d="M472.481 83.9529C470.961 84.7465 469.659 84.2048 468.52 83.1861C465.654 80.6117 466.752 77.751 468.059 75.3201C474.814 62.8381 480.742 42.4435 485.005 29.0121C486.762 23.4862 488.253 17.8815 489.891 12.3206C490.389 10.6396 489.941 9.95869 488.063 10.14C479.345 10.9753 470.615 11.7431 461.886 12.5262C456.496 13.008 408.754 19.2184 403.371 19.7884C401.187 20.0232 391.884 21.9581 389.708 22.3023C388.853 22.4535 387.566 22.6405 387.112 22.1855C385.944 21.0192 384.163 19.999 384.841 17.7941C385.723 14.9561 386.809 14.2223 389.978 13.9448C394.022 13.5874 405.206 11.6676 409.249 11.295C413.485 10.9068 460.104 5.04045 464.327 4.53634C468.759 4.00913 473.148 3.08564 477.557 2.41145C483.184 1.54683 488.809 0.594577 494.47 0.0108331C495.42 -0.0575015 496.365 0.198962 497.148 0.737415C497.93 1.27587 498.502 2.06378 498.769 2.96983C499.299 4.8656 499.612 7.10069 499.114 8.94769C497.044 16.6545 494.694 24.2934 492.331 31.91C488.08 45.6293 481.741 66.1583 475.246 79.0293C474.385 80.7163 473.401 82.3166 472.481 83.9529Z" fill="white"/>
<path fill-rule="evenodd" clip-rule="evenodd" d="M490.495 4.85006C491.705 6.62191 491.237 9.03036 489.449 10.2295L457.202 31.2129C457.088 31.2889 456.971 31.359 456.85 31.4228L428.281 47.1697C428.014 47.3109 427.762 47.4781 427.528 47.6688C427.336 47.8251 427.362 48.1229 427.577 48.2453L446.102 58.7808C446.751 59.1275 447.367 59.5309 447.943 59.9862L473.083 79.2101C474.771 80.5441 475.048 82.9814 473.702 84.6542C472.356 86.3269 469.897 86.6015 468.209 85.2676L456.217 75.1439L445.989 67.6112C445.195 67.026 443.979 67.5259 443.34 68.2747C443.269 68.3568 443.195 68.4367 443.117 68.5142L429.947 81.5669C427.663 83.8301 424.007 83.9693 421.554 81.8863C420.361 80.8725 419.602 79.4462 419.432 77.8975L416.272 49.0839C416.13 47.7863 416.657 46.5048 417.673 45.675L422.558 41.6881C423.192 41.1704 423.877 40.7166 424.602 40.3335L452.99 25.3281L485.067 3.81306C486.855 2.61393 489.285 3.07821 490.495 4.85006ZM426.541 71.0151C426.659 72.0929 427.984 72.5552 428.758 71.7886L437.589 63.0357C437.792 62.8349 437.767 62.4817 437.515 62.3469L427.029 56.7408C426.106 56.2469 425.002 56.9827 425.116 58.0168L426.541 71.0151Z" fill="white"/>
<path fill-rule="evenodd" clip-rule="evenodd" d="M386.898 17.4131C388.303 15.7887 390.77 15.6006 392.409 16.9929L401.579 24.7826L409.323 31.8183L416.359 37.2066C418.067 38.5148 418.382 40.9477 417.062 42.6406C415.742 44.3336 413.287 44.6455 411.579 43.3373L404.283 37.7497L396.393 30.5812L387.322 22.8754C385.683 21.4831 385.493 19.0375 386.898 17.4131Z" fill="white"/>
</g>
<defs>
<clipPath id="clip0_6524_35566">
<rect width="499" height="319" fill="white"/>
</clipPath>
</defs>
</svg>
