<svg width="74" height="28" viewBox="0 0 74 28" fill="none" xmlns="http://www.w3.org/2000/svg">
<path d="M11.8218 2.87109V7.72638C11.8218 8.48484 11.7029 9.21561 11.4825 9.90073C11.3964 10.1679 11.2953 10.4279 11.1795 10.6803C10.4829 12.1983 9.26596 13.4236 7.75895 14.1253C7.50965 14.2411 7.25299 14.3429 6.98871 14.4292C6.98696 14.4296 6.9852 14.4307 6.98345 14.431C6.30563 14.6517 5.58176 14.7711 4.83103 14.7711H0C0.0917273 13.0306 0.534207 11.3837 1.25774 9.90111H3.56254L2.10224 8.43116C3.00919 7.07176 4.17273 5.90048 5.52315 4.98688L6.98383 6.4572V4.13676C8.45668 3.40846 10.0927 2.96341 11.8218 2.87109Z" fill="#C4EF17"/>
<path d="M11.8218 23.1364V28.0001C10.0923 27.9078 8.45597 27.4627 6.98312 26.7341V24.4144L5.52249 25.8846C4.17234 24.971 3.00848 23.7994 2.10153 22.4404L3.56183 20.9704H1.2577C0.533827 19.4875 0.0917273 17.8406 0 16.1001H4.82334C5.57721 16.1001 6.30316 16.2198 6.98345 16.4416C7.24882 16.5283 7.5079 16.6301 7.75824 16.7466C9.26595 17.4479 10.4836 18.6728 11.1806 20.1899C11.2956 20.4404 11.3964 20.6991 11.4822 20.9652C11.4829 20.9669 11.4836 20.9687 11.484 20.9704C11.7036 21.6528 11.8222 22.3807 11.8222 23.1367L11.8218 23.1364Z" fill="#C4EF17"/>
<path d="M23.709 20.9703H21.4045L22.8648 22.4402C21.9579 23.7996 20.7943 24.9709 19.4438 25.8842L17.9832 24.4142V26.7339C16.5104 27.4622 14.8743 27.9079 13.1445 27.9995V23.1443C13.1445 22.3855 13.2634 21.6547 13.4841 20.9699C13.5696 20.7028 13.6714 20.4424 13.7868 20.19C14.4835 18.6723 15.7004 17.4467 17.2074 16.7451C17.4567 16.6293 17.7137 16.5278 17.9776 16.4418C17.9797 16.4411 17.9815 16.4404 17.9832 16.4401C18.6614 16.2189 19.3842 16.0996 20.1353 16.0996H24.967C24.8753 17.8405 24.4332 19.4877 23.7093 20.9703H23.709Z" fill="#C4EF17"/>
<path d="M24.9664 14.7711H20.1427C19.3892 14.7711 18.6632 14.6514 17.9826 14.4296C17.7173 14.3429 17.4589 14.2408 17.2082 14.1246C15.7001 13.4233 14.4829 12.1983 13.7858 10.6813C13.6708 10.4304 13.5697 10.1717 13.4839 9.90599C13.4836 9.90424 13.4825 9.90215 13.4821 9.9004C13.2628 9.21807 13.1443 8.49009 13.1443 7.73405V2.87109C14.8734 2.96341 16.5094 3.40846 17.9823 4.13676V6.45649L19.4429 4.98655C20.7934 5.89982 21.9569 7.07105 22.8638 8.43045L21.4036 9.9004H23.708C24.4319 11.383 24.8744 13.0298 24.9657 14.7711H24.9664Z" fill="#C4EF17"/>
<path d="M34.2052 7.5V7.56836C34.1824 7.62533 34.1653 7.71077 34.1539 7.82471C34.1425 7.93864 34.1368 8.04118 34.1368 8.13232C34.1368 8.48551 34.1881 8.87858 34.2906 9.31152C34.3932 9.73307 34.5755 10.2629 34.8375 10.9009L38.922 20.625L43.0577 11.0376C43.2286 10.616 43.4109 10.1546 43.6046 9.65332C43.7983 9.15202 43.8951 8.64502 43.8951 8.13232C43.8951 7.98421 43.8837 7.86458 43.861 7.77344C43.8382 7.6709 43.8154 7.60254 43.7926 7.56836V7.5H46.8688V7.56836C46.6637 7.78483 46.4017 8.1722 46.0826 8.73047C45.775 9.27734 45.4446 9.96663 45.0914 10.7983L38.7853 25.2393H37.777L31.9323 11.6357C31.7272 11.1344 31.505 10.6559 31.2657 10.2002C31.0379 9.73307 30.8157 9.31722 30.5992 8.95264C30.3942 8.58805 30.2119 8.28613 30.0524 8.04688C29.8929 7.79622 29.7846 7.63672 29.7277 7.56836V7.5H34.2052ZM49.381 14.1821C49.381 13.2137 49.3639 12.3706 49.3297 11.6528C49.3069 10.9237 49.2727 10.297 49.2272 9.77295C49.193 9.24886 49.1417 8.81022 49.0734 8.45703C49.0164 8.10384 48.9537 7.80762 48.8854 7.56836V7.5H52.8331V7.56836C52.7648 7.80762 52.7021 8.10384 52.6451 8.45703C52.5882 8.81022 52.5369 9.24886 52.4913 9.77295C52.4458 10.297 52.4116 10.9237 52.3888 11.6528C52.366 12.3706 52.3546 13.2137 52.3546 14.1821V18.3179C52.3546 19.2863 52.366 20.1351 52.3888 20.8643C52.4116 21.582 52.4458 22.203 52.4913 22.7271C52.5369 23.2511 52.5882 23.6898 52.6451 24.043C52.7021 24.3962 52.7648 24.6924 52.8331 24.9316V25H48.8854V24.9316C48.9537 24.6924 49.0164 24.3962 49.0734 24.043C49.1417 23.6898 49.193 23.2511 49.2272 22.7271C49.2727 22.203 49.3069 21.582 49.3297 20.8643C49.3639 20.1351 49.381 19.2863 49.381 18.3179V14.1821ZM49.0221 2.32178C49.0221 2.07113 49.0677 1.83757 49.1588 1.62109C49.2614 1.39323 49.3924 1.19954 49.5519 1.04004C49.7114 0.869141 49.8994 0.738118 50.1158 0.646973C50.3437 0.544434 50.5887 0.493164 50.8507 0.493164C51.1128 0.493164 51.352 0.544434 51.5685 0.646973C51.7963 0.738118 51.99 0.869141 52.1495 1.04004C52.3204 1.19954 52.4515 1.39323 52.5426 1.62109C52.6451 1.83757 52.6964 2.07113 52.6964 2.32178C52.6964 2.84587 52.5198 3.28451 52.1666 3.6377C51.8134 3.99089 51.3748 4.16748 50.8507 4.16748C50.5887 4.16748 50.3437 4.12191 50.1158 4.03076C49.8994 3.92822 49.7114 3.7972 49.5519 3.6377C49.3924 3.4668 49.2614 3.27311 49.1588 3.05664C49.0677 2.82878 49.0221 2.58382 49.0221 2.32178ZM63.6681 17.6514L59.5665 22.8296C59.4184 23.0233 59.2646 23.2227 59.1051 23.4277C58.957 23.6328 58.8203 23.8322 58.6949 24.0259C58.581 24.2196 58.4842 24.4019 58.4044 24.5728C58.3361 24.7437 58.3019 24.8861 58.3019 25H55.4308V24.9316C55.6131 24.7721 55.8637 24.5329 56.1827 24.2139C56.5131 23.8949 56.8606 23.5018 57.2252 23.0347L62.6085 16.2158L57.3278 9.07227C57.0315 8.6849 56.741 8.35449 56.4562 8.08105C56.1713 7.80762 55.9606 7.63672 55.8239 7.56836V7.5H60.5065C60.5065 7.69368 60.5748 8.0013 60.7115 8.42285C60.8597 8.83301 61.1445 9.32861 61.566 9.90967L64.4713 13.8745L67.7867 9.67041C67.9235 9.48812 68.0602 9.29443 68.1969 9.08936C68.345 8.88428 68.4703 8.6849 68.5729 8.49121C68.6868 8.28613 68.778 8.09814 68.8463 7.92725C68.9147 7.75635 68.9489 7.61393 68.9489 7.5H71.8199V7.56836C71.6604 7.69368 71.4611 7.87598 71.2218 8.11523C70.9825 8.35449 70.6692 8.71908 70.2819 9.20898L65.5138 15.2759L71.256 23.0347C71.6434 23.5474 72.0022 23.9689 72.3326 24.2993C72.663 24.6297 72.9023 24.8405 73.0504 24.9316V25H68.3849C68.3849 24.8063 68.3108 24.4987 68.1627 24.0771C68.0146 23.6442 67.7412 23.1486 67.3424 22.5903L63.6681 17.6514Z" fill="white"/>
</svg>
